<?xml version="1.0" encoding="UTF-8"?>
<svg enable-background="new 0 0 150 150" version="1.1" viewBox="0 0 150 150" xml:space="preserve" xmlns="http://www.w3.org/2000/svg">
<style type="text/css">
	.st0{fill:#2A3238; filter: brightness(1);}
	@media (prefers-color-scheme: dark) {
      :root {
        filter: brightness(6);
      }
    }
</style>

	<path class="st0" d="m118.9 40.3-37.2-22.1c-2.2-1.3-4.7-2-7.2-2s-5 0.7-7.2 2l-37.2 22.1c-4.4 2.6-7.2 7.5-7.2 12.8v44.2c0 5.3 2.7 10.1 7.2 12.8l37.2 22.1c2.2 1.3 4.7 2 7.2 2s5-0.7 7.2-2l37.2-22.1c4.4-2.6 7.2-7.5 7.2-12.8v-44.3c0-5.2-2.7-10.1-7.2-12.7zm-28.8 69 0.1 3.2c0 0.4-0.2 0.8-0.5 1l-1.9 1.1c-0.3 0.2-0.5 0-0.6-0.4v-3.1c-1.6 0.7-3.2 0.8-4.3 0.4-0.2-0.1-0.3-0.4-0.2-0.7l0.7-2.9c0.1-0.2 0.2-0.5 0.3-0.6s0.1-0.1 0.2-0.1c0.1-0.1 0.2-0.1 0.3 0 1.1 0.4 2.6 0.2 3.9-0.5 1.8-0.9 2.9-2.7 2.9-4.5 0-1.6-0.9-2.3-3-2.3-2.7 0-5.2-0.5-5.3-4.5 0-3.3 1.7-6.7 4.4-8.8v-3.2c0-0.4 0.2-0.8 0.5-1l1.8-1.2c0.3-0.2 0.5 0 0.6 0.4v3.2c1.3-0.5 2.5-0.7 3.6-0.4 0.2 0.1 0.3 0.4 0.2 0.7l-0.7 2.8-0.3 0.6c-0.1 0.1-0.1 0.1-0.2 0.1s-0.2 0.1-0.3 0c-0.5-0.1-1.6-0.4-3.4 0.6-1.9 1-2.6 2.6-2.5 3.8 0 1.5 0.8 1.9 3.3 1.9 3.4 0.1 4.9 1.6 5 5 0 3.5-1.8 7.1-4.6 9.4zm19.5-5.4c0 0.3 0 0.6-0.3 0.7l-9.4 5.7c-0.2 0.1-0.4 0-0.4-0.3v-2.4c0-0.3 0.2-0.5 0.4-0.6l9.3-5.5c0.2-0.1 0.4 0 0.4 0.3v2.1zm6.5-54.3-35.2 21.7c-4.4 2.6-7.6 5.4-7.6 10.7v43.4c0 3.2 1.3 5.2 3.2 5.8-0.6 0.1-1.3 0.2-2 0.2-2.1 0-4.1-0.6-5.9-1.6l-37.2-22.1c-3.6-2.2-5.9-6.2-5.9-10.5v-44.2c0-4.3 2.3-8.4 5.9-10.5l37.2-22.1c1.8-1.1 3.8-1.6 5.9-1.6s4.1 0.6 5.9 1.6l37.2 22.1c3.1 1.8 5.1 5 5.7 8.5-1.2-2.6-4-3.3-7.2-1.4z"/>

</svg>
