<svg xmlns="http://www.w3.org/2000/svg" xml:space="preserve" viewBox="0 0 150 150"><style>@media (prefers-color-scheme:dark){:root{filter:brightness(6)}}</style><path d="M118.9 40.3 81.7 18.2c-2.2-1.3-4.7-2-7.2-2s-5 .7-7.2 2L30.1 40.3a14.9 14.9 0 0 0-7.2 12.8v44.2c0 5.3 2.7 10.1 7.2 12.8l37.2 22.1c2.2 1.3 4.7 2 7.2 2s5-.7 7.2-2l37.2-22.1c4.4-2.6 7.2-7.5 7.2-12.8V53c0-5.2-2.7-10.1-7.2-12.7zm-28.8 69 .1 3.2c0 .4-.2.8-.5 1l-1.9 1.1c-.3.2-.5 0-.6-.4v-3.1a6 6 0 0 1-4.3.4c-.2-.1-.3-.4-.2-.7l.7-2.9.3-.6.2-.1h.3a5 5 0 0 0 3.9-.5 5.1 5.1 0 0 0 2.9-4.5c0-1.6-.9-2.3-3-2.3-2.7 0-5.2-.5-5.3-4.5 0-3.3 1.7-6.7 4.4-8.8v-3.2c0-.4.2-.8.5-1l1.8-1.2c.3-.2.5 0 .6.4v3.2c1.3-.5 2.5-.7 3.6-.4.2.1.3.4.2.7l-.7 2.8-.3.6-.2.1h-.3c-.5-.1-1.6-.4-3.4.6-1.9 1-2.6 2.6-2.5 3.8 0 1.5.8 1.9 3.3 1.9 3.4.1 4.9 1.6 5 5 0 3.5-1.8 7.1-4.6 9.4zm19.5-5.4c0 .3 0 .6-.3.7l-9.4 5.7c-.2.1-.4 0-.4-.3v-2.4c0-.3.2-.5.4-.6l9.3-5.5c.2-.1.4 0 .4.3v2.1zm6.5-54.3L80.9 71.3c-4.4 2.6-7.6 5.4-7.6 10.7v43.4c0 3.2 1.3 5.2 3.2 5.8l-2 .2c-2.1 0-4.1-.6-5.9-1.6l-37.2-22.1a12.4 12.4 0 0 1-5.9-10.5V53c0-4.3 2.3-8.4 5.9-10.5l37.2-22.1c1.8-1.1 3.8-1.6 5.9-1.6s4.1.6 5.9 1.6l37.2 22.1c3.1 1.8 5.1 5 5.7 8.5-1.2-2.6-4-3.3-7.2-1.4z" style="fill:#2a3238;filter:brightness(1)"/></svg>